HIERARCHY
ROOT SpineBase
{
  OFFSET 0.000000 0.000000 0.000000
  CHANNELS 6 Xposition Yposition Zposition Zrotation Xrotation Yrotation
  JOINT SpineMid
  {
    OFFSET 0.000000 25.099566 0.000000
    CHANNELS 3 Zrotation Xrotation Yrotation
    JOINT SpineShoulder
    {
      OFFSET -0.003823 18.421651 -0.610565
      CHANNELS 3 Zrotation Xrotation Yrotation
      JOINT Neck
      {
        OFFSET -0.056052 6.024045 -0.493987
        CHANNELS 3 Zrotation Xrotation Yrotation
        JOINT Head
        {
          OFFSET 0.848408 10.514237 -3.605500
          CHANNELS 3 Zrotation Xrotation Yrotation
          End Site
          {
            OFFSET 0 0 0
          }
        }
      }
      JOINT ShoulderLeft
      {
        OFFSET -15.217004 -3.263017 -7.170523
        CHANNELS 3 Zrotation Xrotation Yrotation
        JOINT ElbowLeft
        {
          OFFSET -8.366879 -21.208373 -7.161909
          CHANNELS 3 Zrotation Xrotation Yrotation
          JOINT WristLeft
          {
            OFFSET 8.670493 -17.863554 -10.796034
            CHANNELS 3 Zrotation Xrotation Yrotation
            JOINT HandLeft
            {
              OFFSET 4.152568 -5.619107 -1.205837
              CHANNELS 3 Zrotation Xrotation Yrotation
              JOINT HandTipLeft
              {
                OFFSET 4.486989 -5.604848 -5.807068
                CHANNELS 3 Zrotation Xrotation Yrotation
                End Site
                {
                  OFFSET 0 0 0
                }
              }
              JOINT ThumbLeft
              {
                OFFSET 2.361972 0.552975 -5.713492
                CHANNELS 3 Zrotation Xrotation Yrotation
                End Site
                {
                  OFFSET 0 0 0
                }
              }
            }
          }
        }
      }
      JOINT ShoulderRight
      {
        OFFSET 18.207994 -0.109756 6.680704
        CHANNELS 3 Zrotation Xrotation Yrotation
        JOINT ElbowRight
        {
          OFFSET 11.529974 -21.226723 -1.182024
          CHANNELS 3 Zrotation Xrotation Yrotation
          JOINT WristRight
          {
            OFFSET -5.138191 -6.664568 -18.008306
            CHANNELS 3 Zrotation Xrotation Yrotation
            JOINT HandRight
            {
              OFFSET 0.112239 0.863754 -1.248646
              CHANNELS 3 Zrotation Xrotation Yrotation
              JOINT HandTipRight
              {
                OFFSET -0.578862 -1.643001 -1.543016
                CHANNELS 3 Zrotation Xrotation Yrotation
                End Site
                {
                  OFFSET 0 0 0
                }
              }
              JOINT ThumbRight
              {
                OFFSET -1.012012 2.091140 -2.180212
                CHANNELS 3 Zrotation Xrotation Yrotation
                End Site
                {
                  OFFSET 0 0 0
                }
              }
            }
          }
        }
      }
    }
  }
  JOINT HipLeft
  {
    OFFSET -6.893917 -0.222005 -4.876162
    CHANNELS 3 Zrotation Xrotation Yrotation
    JOINT KneeLeft
    {
      OFFSET 6.263944 -15.390829 -34.082894
      CHANNELS 3 Zrotation Xrotation Yrotation
      JOINT AnkleLeft
      {
        OFFSET -1.698577 -37.758607 0.753305
        CHANNELS 3 Zrotation Xrotation Yrotation
        JOINT FootLeft
        {
          OFFSET 3.385855 -8.302621 -8.651135
          CHANNELS 3 Zrotation Xrotation Yrotation
          End Site
          {
            OFFSET 0 0 0
          }
        }
      }
    }
  }
  JOINT HipRight
  {
    OFFSET 6.470844 -0.646511 -1.619133
    CHANNELS 3 Zrotation Xrotation Yrotation
    JOINT KneeRight
    {
      OFFSET 28.457975 -9.085504 -23.593973
      CHANNELS 3 Zrotation Xrotation Yrotation
      JOINT AnkleRight
      {
        OFFSET -2.274179 -33.841040 10.832936
        CHANNELS 3 Zrotation Xrotation Yrotation
        JOINT FootRight
        {
          OFFSET 3.102819 -8.386703 -8.620146
          CHANNELS 3 Zrotation Xrotation Yrotation
          End Site
          {
            OFFSET 0 0 0
          }
        }
      }
    }
  }
}
MOTION
Frames: 16
Frame Time: 0.033333
24.021696 62.151248 387.552314 -0.000000 0.000000 -13.696162 -0.000000 0.000000 13.696162 -0.000000 0.000000 0.000000 -0.000000 0.000000 0.000000 0.000000 0.000000 0.000000 -0.000000 0.000000 0.000000 -0.000000 0.000000 0.000000 -0.000000 0.000000 0.000000 -0.000000 0.000000 0.000000 0.000000 0.000000 0.000000 0.000000 0.000000 0.000000 -0.000000 0.000000 0.000000 -0.000000 0.000000 0.000000 -0.000000 0.000000 0.000000 -0.000000 0.000000 0.000000 0.000000 0.000000 0.000000 0.000000 0.000000 0.000000 -0.000000 0.000000 13.696162 -0.000000 0.000000 0.000000 -0.000000 0.000000 0.000000 0.000000 0.000000 0.000000 -0.000000 0.000000 13.696162 -0.000000 0.000000 0.000000 -0.000000 0.000000 0.000000 0.000000 0.000000 0.000000
23.955865 62.199754 387.580131 -0.108791 -0.007454 -13.883296 0.103824 0.033340 13.883258 -0.000000 0.000000 0.000000 -0.000000 0.000000 0.000000 0.000000 0.000000 0.000000 -0.000000 0.000000 0.000000 -0.000000 0.000000 0.000000 -0.450749 1.302973 1.065271 -1.315838 -6.182631 -3.524288 0.000000 0.000000 0.000000 0.000000 0.000000 0.000000 -0.000000 0.000000 0.000000 0.507691 -1.376118 -0.316080 0.571693 -8.657873 2.875539 1.120285 0.322899 -1.044404 0.000000 0.000000 0.000000 0.000000 0.000000 0.000000 0.103824 0.033340 13.883258 -0.000000 0.000000 0.000000 -0.000000 0.000000 0.000000 0.000000 0.000000 0.000000 0.103824 0.033340 13.883258 -0.000000 0.000000 0.000000 -0.000000 0.000000 0.000000 0.000000 0.000000 0.000000
23.901025 62.242163 387.609741 -0.202440 -0.018606 -14.012362 0.191911 0.067069 14.012217 -0.000000 0.000000 0.000000 -0.000000 0.000000 0.000000 0.000000 0.000000 0.000000 -0.000000 0.000000 0.000000 -0.735222 0.195610 0.541669 -0.143779 2.219545 1.455835 -2.640736 -11.318667 -6.838636 0.000000 0.000000 0.000000 0.000000 0.000000 0.000000 0.977072 -0.329480 -0.229542 -0.079344 -2.090037 -0.323640 3.156795 -17.913762 7.634244 0.669416 5.412430 -4.750966 0.000000 0.000000 0.000000 0.000000 0.000000 0.000000 0.191911 0.067069 14.012217 -0.000000 0.000000 0.000000 -0.000000 0.000000 0.000000 0.000000 0.000000 0.000000 0.191911 0.067069 14.012217 -0.000000 0.000000 0.000000 -0.000000 0.000000 0.000000 0.000000 0.000000 0.000000
23.857174 62.278476 387.641143 -0.280848 -0.033460 -14.082575 0.264267 0.100790 14.082261 -0.000000 0.000000 0.000000 -0.000000 0.000000 0.000000 0.000000 0.000000 0.000000 -0.000000 0.000000 0.000000 -1.035901 0.289235 0.771273 -0.246257 2.992422 1.977128 -3.749824 -15.242191 -9.721681 0.000000 0.000000 0.000000 0.000000 0.000000 0.000000 1.413769 -0.513566 -0.349102 -0.235180 -2.652959 -0.376167 7.457059 -25.651836 13.721996 -0.330680 12.404906 -9.809977 0.000000 0.000000 0.000000 0.000000 0.000000 0.000000 0.264267 0.100790 14.082261 -0.000000 0.000000 0.000000 -0.000000 0.000000 0.000000 0.000000 0.000000 0.000000 0.264267 0.100790 14.082261 -0.000000 0.000000 0.000000 -0.000000 0.000000 0.000000 0.000000 0.000000 0.000000
23.824312 62.308691 387.674337 -0.343937 -0.052013 -14.093429 0.320920 0.134196 14.092897 -0.000000 0.000000 0.000000 -0.000000 0.000000 0.000000 0.000000 0.000000 0.000000 -0.907695 0.273427 0.200038 -0.375652 0.106800 0.765498 -0.349404 3.474673 2.303573 -4.420214 -17.879774 -11.949550 0.000000 0.000000 0.000000 0.000000 0.000000 0.000000 1.808157 -0.708883 -0.470693 -0.447134 -2.928724 -0.370031 12.531489 -30.924462 20.143174 -0.906703 19.799145 -15.525496 0.000000 0.000000 0.000000 0.000000 0.000000 0.000000 0.320920 0.134196 14.092897 -0.000000 0.000000 0.000000 -0.000000 0.000000 0.000000 0.000000 0.000000 0.000000 0.320920 0.134196 14.092897 -0.000000 0.000000 0.000000 -0.000000 0.000000 0.000000 0.000000 0.000000 0.000000
23.802440 62.332810 387.709323 -0.391645 -0.074260 -14.044706 0.361918 0.167082 14.043924 -0.000000 0.000000 0.000000 -0.000000 0.000000 0.000000 0.000000 0.000000 0.000000 -1.088213 0.266633 0.263640 -0.385021 0.198938 0.860861 -0.438782 3.626755 2.398382 -4.470716 -19.207586 -13.338334 0.000000 0.000000 0.000000 0.000000 0.000000 0.000000 2.155043 -0.913808 -0.593401 -0.708000 -2.924705 -0.310111 17.434495 -34.022037 26.014931 -0.278401 27.415773 -22.055418 0.000000 0.000000 0.000000 0.000000 0.000000 0.000000 0.361918 0.167082 14.043924 -0.000000 0.000000 0.000000 -0.000000 0.000000 0.000000 0.000000 0.000000 0.000000 0.361918 0.167082 14.043924 -0.000000 0.000000 0.000000 -0.000000 0.000000 0.000000 0.000000 0.000000 0.000000
23.744754 62.343608 387.819154 -0.495192 -0.212391 -13.885821 0.429757 0.325017 13.883684 -0.000000 0.000000 0.000000 -0.000000 0.000000 0.000000 0.000000 0.000000 0.000000 -1.276128 0.145964 0.373197 -0.666448 0.660918 1.211261 0.508938 3.294438 1.844965 -4.855475 -21.847934 -16.631713 0.000000 0.000000 0.000000 0.000000 0.000000 0.000000 2.164378 -1.271081 -0.779456 -0.854630 -1.906760 -0.280679 23.436195 -36.292358 32.975759 7.726132 38.905618 -39.141675 0.000000 0.000000 0.000000 0.000000 0.000000 0.000000 0.072674 0.272971 14.695630 0.358601 -0.040236 -0.809956 -0.000000 0.000000 0.000000 0.000000 0.000000 0.000000 0.429757 0.325017 13.883684 -0.000000 0.000000 0.000000 -0.000000 0.000000 0.000000 0.000000 0.000000 0.000000
23.703267 62.346183 387.812888 -0.568812 -0.165553 -13.861526 0.512591 0.296997 13.859376 -0.000000 0.000000 0.000000 -0.000000 0.000000 0.000000 0.000000 0.000000 0.000000 -1.424568 -0.008950 0.482155 -0.283388 0.946235 1.026145 -0.777552 0.876213 0.405783 -0.134408 -14.351042 -11.248897 0.000000 0.000000 0.000000 0.000000 0.000000 0.000000 1.725800 -1.455524 -0.858411 -0.876969 0.320260 -0.600193 26.193075 -38.614652 36.046068 43.573268 59.988618 -79.482904 0.000000 0.000000 0.000000 0.000000 0.000000 0.000000 0.089660 0.218815 14.823370 1.222799 -0.242595 -0.935301 -0.797271 0.196969 -0.023390 0.000000 0.000000 0.000000 0.512591 0.296997 13.859376 0.707320 -0.309795 0.249043 -0.705978 0.312843 -0.245204 0.000000 0.000000 0.000000
23.776362 62.361247 387.818459 -0.466119 -0.145627 -13.776798 0.418034 0.252434 13.775285 -0.000000 0.000000 0.000000 -0.000000 0.000000 0.000000 0.000000 0.000000 0.000000 -1.542713 0.000921 0.517888 -0.892516 0.797776 1.370518 0.948334 4.815904 2.717719 0.215575 -16.673888 -14.304577 0.000000 0.000000 0.000000 0.000000 0.000000 0.000000 3.026413 -1.594431 -0.979250 -2.280398 -0.201861 0.371718 30.384685 -39.702191 40.393384 54.342282 59.151585 -94.775457 0.000000 0.000000 0.000000 0.000000 0.000000 0.000000 -0.129190 0.072639 15.034175 1.462612 -0.243675 -1.226515 -1.522982 0.336408 0.665782 0.000000 0.000000 0.000000 0.282308 0.489407 14.790110 0.946837 -0.679697 -0.697095 -1.504610 0.543400 0.390854 0.000000 0.000000 0.000000
23.864379 62.390127 387.736324 -0.376556 0.026245 -13.469823 0.372312 0.062189 13.469708 -0.000000 0.000000 0.000000 -0.000000 0.000000 0.000000 0.000000 0.000000 0.000000 -1.623140 0.061321 0.521822 -0.044779 0.231529 0.640084 -1.318837 4.405056 3.112644 1.285169 -14.779636 -12.320076 0.000000 0.000000 0.000000 0.000000 0.000000 0.000000 3.501258 -2.529155 -1.469067 -2.198653 -0.770046 0.556178 30.520840 -36.772623 41.162836 22.124656 47.882540 -63.491569 0.000000 0.000000 0.000000 0.000000 0.000000 0.000000 -0.275660 -0.386100 14.990851 1.725409 -0.135363 -1.489125 -1.805632 0.355108 0.812083 0.000000 0.000000 0.000000 0.124724 0.246720 14.726750 1.273144 -0.714326 -0.867866 -1.898981 0.488266 0.477865 0.000000 0.000000 0.000000
24.014441 62.458988 387.659253 -0.222616 0.192897 -13.210383 0.260808 -0.136917 13.211069 -0.000000 0.000000 0.000000 -0.000000 0.000000 0.000000 0.000000 0.000000 0.000000 -1.705127 0.097427 0.535563 0.296864 0.284309 0.513162 -3.954046 2.820553 2.659762 3.749576 -13.403509 -11.566129 0.000000 0.000000 0.000000 0.000000 0.000000 0.000000 3.225148 -2.722361 -1.560113 -1.659239 -0.861972 0.110629 30.575862 -34.176417 41.829751 14.861160 44.817639 -56.331086 0.000000 0.000000 0.000000 0.000000 0.000000 0.000000 -0.497558 -0.968406 15.028788 2.037782 0.095525 -1.793256 -2.095859 0.343766 0.950715 0.000000 0.000000 0.000000 -0.201203 -0.096436 14.822310 1.786994 -0.642816 -1.135714 -2.356411 0.370565 0.538055 0.000000 0.000000 0.000000
24.084548 62.514908 387.498655 -0.226605 0.502287 -12.795503 0.332229 -0.439621 12.797771 -0.000000 0.000000 0.000000 0.804827 -0.703168 0.337152 0.000000 0.000000 0.000000 -1.743509 0.076445 0.556351 0.457192 0.459695 0.495577 -6.328350 -0.273372 0.741003 3.609628 -13.380927 -10.337946 0.000000 0.000000 0.000000 0.000000 0.000000 0.000000 4.084165 -2.744345 -1.591807 -3.096391 -0.313855 1.387903 28.856450 -35.071354 38.847697 8.008496 44.995798 -45.152619 0.000000 0.000000 0.000000 0.000000 0.000000 0.000000 -0.476777 -1.613207 14.756644 2.281140 0.456045 -1.952988 -2.337033 0.152200 1.028245 0.000000 0.000000 0.000000 -0.259411 -0.524919 14.516009 2.247553 -0.476288 -1.157808 -2.793813 0.136515 0.528175 0.000000 0.000000 0.000000
24.190791 62.582274 387.231268 -0.196092 1.003741 -12.667482 0.411477 -0.936294 12.672562 -0.604888 0.763879 -0.038486 1.803099 -1.687949 0.556235 0.000000 0.000000 0.000000 -1.231516 -0.710486 0.618054 0.689421 0.525296 0.393743 -9.620084 -2.390587 -0.359875 2.785956 -16.114987 -10.813634 0.000000 0.000000 0.000000 0.000000 0.000000 0.000000 6.568117 -3.457437 -1.490402 -6.286102 0.770508 4.157617 23.486320 -35.325380 30.328409 0.233794 38.157692 -30.915779 0.000000 0.000000 0.000000 0.000000 0.000000 0.000000 -0.466686 -2.550883 14.830870 2.569920 0.678248 -2.168850 -2.588508 0.091912 1.069963 0.000000 0.000000 0.000000 -0.329519 -1.209395 14.406952 2.730970 -0.143925 -1.111524 -3.220478 -0.293021 0.493837 0.000000 0.000000 0.000000
24.292672 62.644636 387.201717 -0.177966 1.053445 -12.430411 0.400601 -0.990429 12.435510 -0.722888 0.910613 -0.045094 2.312008 -1.999605 0.727690 0.000000 0.000000 0.000000 -1.079673 -0.832896 0.603458 0.401565 0.123653 0.380029 -13.896927 -4.526383 -1.754008 4.545789 -14.973710 -8.258035 0.000000 0.000000 0.000000 0.000000 0.000000 0.000000 9.295370 -3.700289 -1.533648 -9.769508 1.193126 6.399940 22.985993 -32.953863 28.082933 -5.106483 42.073524 -24.956449 0.000000 0.000000 0.000000 0.000000 0.000000 0.000000 -0.578361 -2.781719 14.829810 2.829858 0.753905 -2.413508 -2.841107 0.096373 1.183374 0.000000 0.000000 0.000000 -0.538616 -1.435182 14.382640 3.227832 0.194455 -1.273763 -3.611323 -0.576048 0.534511 0.000000 0.000000 0.000000
24.229398 62.685961 387.356910 -0.403768 0.798443 -12.085093 0.562023 -0.696186 12.091321 -0.880426 0.988251 -0.055453 2.746474 -2.147042 0.852602 0.000000 0.000000 0.000000 -1.132407 -1.001899 0.716067 -0.031567 1.164426 1.148404 -15.411885 -5.765421 -3.042854 4.624472 -18.268677 -11.456250 0.000000 0.000000 0.000000 0.000000 0.000000 0.000000 13.463270 -4.241124 -1.727231 -15.553915 2.745538 10.297925 22.818465 -35.016551 25.046799 -6.197133 48.863027 -23.370075 0.000000 0.000000 0.000000 0.000000 0.000000 0.000000 -0.434618 -2.473852 14.506031 2.961736 0.723210 -2.427909 -3.109145 0.236676 1.382740 0.000000 0.000000 0.000000 -0.469655 -1.138915 14.334221 3.582602 0.364655 -1.501528 -4.015059 -0.652587 0.653677 0.000000 0.000000 0.000000
24.037044 62.710767 387.701818 -0.789286 0.234922 -11.814138 0.820663 -0.068331 11.816246 -1.048399 0.958078 -0.068346 3.098883 -2.097306 0.933062 0.000000 0.000000 0.000000 -1.369304 -1.116139 0.914010 -3.965583 0.079362 3.039910 -16.887585 -6.032243 -5.978802 2.613849 -23.920629 -14.637688 0.000000 0.000000 0.000000 0.000000 0.000000 0.000000 15.962563 -0.589672 -0.330081 -19.172315 0.795950 10.438322 22.262112 -27.005189 21.304602 -12.691498 55.670905 -19.068315 0.000000 0.000000 0.000000 0.000000 0.000000 0.000000 -0.123614 -1.653836 14.084239 2.972117 0.568717 -2.260285 -3.289096 0.529371 1.572806 0.000000 0.000000 0.000000 -0.274467 -0.441662 14.441856 3.793764 0.328948 -1.822379 -4.242333 -0.408777 0.788193 0.000000 0.000000 0.000000
